<svg width="411" height="473" viewBox="0 0 411 473" fill="none" xmlns="http://www.w3.org/2000/svg">
<path d="M328.453 229.556C337.981 229.556 347.274 227.115 355.543 222.311C381.294 207.427 407.911 132.93 410.904 124.504C411.691 122.378 411.455 119.936 410.274 117.968C409.093 115.999 407.203 114.581 404.919 114.188C396.099 112.534 318.215 98.3587 292.543 113.243C274.903 123.401 265.138 142.38 264.901 162.54C257.42 156.476 248.915 151.594 239.78 148.05C257.105 137.734 268.681 119.779 268.681 99.4613C268.681 69.7725 217.494 9.37125 211.666 2.59875C208.674 -0.86625 202.689 -0.86625 199.696 2.59875C193.869 9.37125 142.681 69.7725 142.681 99.4613C142.681 119.857 154.258 137.734 171.583 148.05C162.448 151.594 154.021 156.476 146.461 162.54C146.225 142.38 136.46 123.401 118.82 113.243C93.0689 98.3587 15.1852 112.534 6.44391 114.188C4.16016 114.581 2.27016 115.999 1.08891 117.968C-0.0923405 119.936 -0.24984 122.378 0.45891 124.504C3.45141 132.93 30.0689 207.506 55.8202 222.311C64.1677 227.115 73.3814 229.556 82.9102 229.556C88.8164 229.556 94.8802 228.611 100.865 226.721C104.881 225.461 108.74 223.729 112.363 221.681C111.654 226.406 111.181 231.21 111.181 236.092C111.181 240.975 111.654 245.779 112.363 250.504C108.74 248.456 104.881 246.724 100.865 245.464C85.3514 240.502 69.3652 241.999 55.8202 249.874C30.0689 264.758 3.45141 339.255 0.45891 347.681C-0.32859 349.807 -0.0923405 352.249 1.08891 354.217C2.27016 356.186 4.16016 357.604 6.44391 357.997C12.2714 359.1 48.4177 365.715 79.6027 365.715C95.5102 365.715 110.158 363.983 118.82 359.021C136.46 348.862 146.225 329.884 146.461 309.724C153.943 315.787 162.448 320.67 171.583 324.214C154.258 334.53 142.681 352.485 142.681 372.802C142.681 402.491 193.869 462.892 199.696 469.665C201.193 471.397 203.398 472.421 205.681 472.421C207.965 472.421 210.17 471.397 211.666 469.665C217.494 462.892 268.681 402.491 268.681 372.802C268.681 352.406 257.105 334.53 239.78 324.214C248.915 320.67 257.341 315.787 264.901 309.724C265.138 329.884 274.903 348.862 292.543 359.021C301.205 364.061 315.853 365.715 331.76 365.715C362.945 365.715 399.091 359.1 404.919 357.997C407.203 357.604 409.093 356.186 410.274 354.217C411.455 352.249 411.613 349.807 410.904 347.681C407.911 339.255 381.294 264.679 355.543 249.874C341.998 242.077 326.011 240.502 310.498 245.464C306.481 246.724 302.623 248.456 299 250.504C299.709 245.779 300.181 240.975 300.181 236.092C300.181 231.21 299.709 226.406 299 221.681C302.623 223.729 306.481 225.461 310.498 226.721C316.483 228.611 322.468 229.556 328.453 229.556ZM115.198 315.63C108.031 319.725 87.7927 317.047 72.1214 313.267C76.6102 297.754 84.4064 278.854 91.5727 274.759C97.0064 271.609 103.385 270.742 109.528 272.396C115.591 274.05 120.71 277.909 123.86 283.421C130.396 294.682 126.459 309.173 115.198 315.709V315.63ZM123.86 188.842C120.71 194.276 115.591 198.214 109.528 199.867C103.464 201.521 97.0852 200.655 91.5727 197.505C84.4064 193.41 76.6102 174.51 72.1214 158.996C87.7927 155.137 108.031 152.46 115.198 156.634C126.459 163.17 130.318 177.66 123.86 188.921V188.842ZM205.681 81.8213C216.864 93.4762 229.306 109.699 229.306 117.968C229.306 130.961 218.675 141.592 205.681 141.592C192.688 141.592 182.056 130.961 182.056 117.968C182.056 109.699 194.499 93.4762 205.681 81.8213ZM205.681 390.285C194.499 378.63 182.056 362.408 182.056 354.139C182.056 341.145 192.688 330.514 205.681 330.514C218.675 330.514 229.306 341.145 229.306 354.139C229.306 362.408 216.864 378.63 205.681 390.285ZM205.681 267.514C188.278 267.514 174.181 253.417 174.181 236.014C174.181 218.61 188.278 204.514 205.681 204.514C223.085 204.514 237.181 218.61 237.181 236.014C237.181 253.417 223.085 267.514 205.681 267.514ZM301.835 272.239C303.883 271.688 305.93 271.451 307.978 271.451C312.073 271.451 316.089 272.554 319.79 274.601C326.956 278.696 334.753 297.596 339.241 313.11C323.57 316.969 303.331 319.646 296.165 315.473C284.904 308.936 281.045 294.446 287.503 283.185C290.653 277.751 295.771 273.814 301.835 272.16V272.239ZM301.835 199.789C295.771 198.135 290.653 194.276 287.503 188.764C280.966 177.503 284.904 163.012 296.165 156.476C298.685 154.98 302.859 154.429 307.978 154.429C317.191 154.429 329.161 156.398 339.32 158.917C334.831 174.431 327.035 193.331 319.869 197.426C314.435 200.576 308.056 201.442 301.914 199.789H301.835Z" fill="#ECCFCB" fill-opacity="0.2"/>
</svg>
